<?xml version="1.0" encoding="UTF-8" standalone="no"?>
<!-- Created with Inkscape (http://www.inkscape.org/) -->

<svg
   width="20.830099mm"
   height="19.448456mm"
   viewBox="0 0 20.830099 19.448456"
   version="1.1"
   id="svg1"
   xml:space="preserve"
   inkscape:version="1.4.2 (ebf0e940, 2025-05-08)"
   sodipodi:docname="home.svg"
   xmlns:inkscape="http://www.inkscape.org/namespaces/inkscape"
   xmlns:sodipodi="http://sodipodi.sourceforge.net/DTD/sodipodi-0.dtd"
   xmlns="http://www.w3.org/2000/svg"
   xmlns:svg="http://www.w3.org/2000/svg"><sodipodi:namedview
     id="namedview1"
     pagecolor="#ffffff"
     bordercolor="#000000"
     borderopacity="0.25"
     inkscape:showpageshadow="2"
     inkscape:pageopacity="0.0"
     inkscape:pagecheckerboard="0"
     inkscape:deskcolor="#d1d1d1"
     inkscape:document-units="mm"
     inkscape:zoom="1.342561"
     inkscape:cx="107.25769"
     inkscape:cy="135.56181"
     inkscape:window-width="1632"
     inkscape:window-height="965"
     inkscape:window-x="0"
     inkscape:window-y="38"
     inkscape:window-maximized="0"
     inkscape:current-layer="layer1" /><defs
     id="defs1" /><g
     inkscape:label="Layer 1"
     inkscape:groupmode="layer"
     id="layer1"
     transform="translate(-473.58568,-313.22346)"><path
       d="m 473.68535,321.179 h 1.59681 c 0.0548,0 0.10026,0.0444 0.10026,0.10025 v 11.29242 c 0,0.0548 0.0444,0.10025 0.10025,0.10025 h 4.90829 c 0.0548,0 0.10025,-0.0444 0.10025,-0.10025 l -0.002,-7.90125 c 0,-0.0548 0.0444,-0.10025 0.0992,-0.10025 l 6.82334,10e-4 c 0.0548,0 0.0992,0.0444 0.0992,0.10025 v 7.90019 c 0,0.0548 0.0444,0.10026 0.10025,0.10026 h 4.90829 c 0.0548,0 0.10025,-0.0444 0.10025,-0.10026 l -10e-4,-11.29241 c 0,-0.0548 0.0444,-0.10025 0.10025,-0.10025 h 1.59682 c 0.0961,0 0.13642,-0.12196 0.0599,-0.17984 l -10.31557,-7.75547 c -0.0351,-0.0269 -0.0847,-0.0269 -0.11989,0 l -10.31452,7.75653 c -0.0765,0.0568 -0.0362,0.1788 0.0599,0.1788 z"
       id="path1"
       style="fill:#ffffff;fill-opacity:1;stroke-width:0.264583" /></g></svg>
