<?xml version="1.0" encoding="UTF-8" standalone="no"?>
<!-- Created with Inkscape (http://www.inkscape.org/) -->

<svg
   width="22.420271mm"
   height="21.90671mm"
   viewBox="0 0 22.420271 21.90671"
   version="1.1"
   id="svg1"
   xml:space="preserve"
   inkscape:version="1.4.2 (ebf0e940, 2025-05-08)"
   sodipodi:docname="parameters.svg"
   xmlns:inkscape="http://www.inkscape.org/namespaces/inkscape"
   xmlns:sodipodi="http://sodipodi.sourceforge.net/DTD/sodipodi-0.dtd"
   xmlns="http://www.w3.org/2000/svg"
   xmlns:svg="http://www.w3.org/2000/svg"><sodipodi:namedview
     id="namedview1"
     pagecolor="#ffffff"
     bordercolor="#000000"
     borderopacity="0.25"
     inkscape:showpageshadow="2"
     inkscape:pageopacity="0.0"
     inkscape:pagecheckerboard="0"
     inkscape:deskcolor="#d1d1d1"
     inkscape:document-units="mm"
     inkscape:zoom="1.342561"
     inkscape:cx="-165.35561"
     inkscape:cy="159.39685"
     inkscape:window-width="1632"
     inkscape:window-height="965"
     inkscape:window-x="0"
     inkscape:window-y="38"
     inkscape:window-maximized="0"
     inkscape:current-layer="layer1" /><defs
     id="defs1" /><g
     inkscape:label="Layer 1"
     inkscape:groupmode="layer"
     id="layer1"
     transform="translate(-545.66396,-307.00929)"><path
       d="m 546.44634,311.27781 h 11.13525 c 0.35658,1.54618 1.74355,2.70378 3.39619,2.70378 1.65262,0 3.03954,-1.15652 3.39619,-2.70378 h 2.92788 c 0.43202,0 0.78238,-0.35036 0.78238,-0.78237 0,-0.43201 -0.35036,-0.78237 -0.78238,-0.78237 h -2.92788 c -0.35657,-1.54617 -1.74355,-2.70378 -3.39619,-2.70378 -1.65261,0 -3.03953,1.15652 -3.39619,2.70378 l -11.13525,10e-4 c -0.43201,0 -0.78238,0.35036 -0.78238,0.78237 0,0.43201 0.35037,0.78238 0.78238,0.78238 z m 14.53144,-2.70377 c 1.05937,0 1.92133,0.86196 1.92133,1.92132 0,1.05937 -0.86196,1.92133 -1.92133,1.92133 -1.05936,0 -1.92132,-0.86196 -1.92132,-1.92133 0,-1.05936 0.86196,-1.92132 1.92132,-1.92132 z m 6.32407,8.6061 H 556.1666 c -0.35658,-1.54617 -1.74355,-2.70378 -3.39619,-2.70378 -1.65262,0 -3.03954,1.15652 -3.39619,2.70378 h -2.92788 c -0.43201,0 -0.78238,0.35036 -0.78238,0.78237 0,0.43201 0.35037,0.78237 0.78238,0.78237 h 2.92788 c 0.35658,1.54618 1.74355,2.70378 3.39619,2.70378 1.65261,0 3.03953,-1.15652 3.39619,-2.70378 h 11.13525 c 0.43202,0 0.78238,-0.35036 0.78238,-0.78237 0,-0.43201 -0.35036,-0.78237 -0.78238,-0.78237 z m -14.53144,2.70378 c -1.05937,0 -1.92133,-0.86196 -1.92133,-1.92133 0,-1.05936 0.86196,-1.92132 1.92133,-1.92132 1.05936,0 1.92132,0.86196 1.92132,1.92132 0,1.05937 -0.86196,1.92133 -1.92132,1.92133 z m 14.53144,4.76355 h -2.92788 c -0.35657,-1.54617 -1.74355,-2.70377 -3.39619,-2.70377 -1.65261,0 -3.03953,1.15652 -3.39619,2.70377 h -11.13525 c -0.43201,0 -0.78238,0.35037 -0.78238,0.78238 0,0.43201 0.35037,0.78237 0.78238,0.78237 h 11.13525 c 0.35658,1.54617 1.74355,2.70378 3.39619,2.70378 1.65262,0 3.03954,-1.15652 3.39619,-2.70378 h 2.92788 c 0.43202,0 0.78238,-0.35036 0.78238,-0.78237 0,-0.43201 -0.35036,-0.78238 -0.78238,-0.78238 z m -6.32407,2.70378 c -1.05936,0 -1.92132,-0.86196 -1.92132,-1.92132 0,-1.05937 0.86196,-1.92133 1.92132,-1.92133 1.05937,0 1.92133,0.86196 1.92133,1.92133 0,1.05936 -0.86196,1.92132 -1.92133,1.92132 z"
       id="path1"
       style="fill:#ffffff;fill-opacity:1;stroke-width:0.264583" /></g></svg>
