<?xml version="1.0" encoding="UTF-8" standalone="no"?>
<!-- Created with Inkscape (http://www.inkscape.org/) -->

<svg
   width="24.629961mm"
   height="18.50935mm"
   viewBox="0 0 24.629961 18.50935"
   version="1.1"
   id="svg1"
   xml:space="preserve"
   inkscape:version="1.4.2 (ebf0e940, 2025-05-08)"
   sodipodi:docname="soundboard.svg"
   xmlns:inkscape="http://www.inkscape.org/namespaces/inkscape"
   xmlns:sodipodi="http://sodipodi.sourceforge.net/DTD/sodipodi-0.dtd"
   xmlns="http://www.w3.org/2000/svg"
   xmlns:svg="http://www.w3.org/2000/svg"><sodipodi:namedview
     id="namedview1"
     pagecolor="#ffffff"
     bordercolor="#000000"
     borderopacity="0.25"
     inkscape:showpageshadow="2"
     inkscape:pageopacity="0.0"
     inkscape:pagecheckerboard="0"
     inkscape:deskcolor="#d1d1d1"
     inkscape:document-units="mm"
     inkscape:zoom="5.3765515"
     inkscape:cx="44.731274"
     inkscape:cy="54.68189"
     inkscape:window-width="1632"
     inkscape:window-height="965"
     inkscape:window-x="0"
     inkscape:window-y="38"
     inkscape:window-maximized="0"
     inkscape:current-layer="layer1" /><defs
     id="defs1" /><g
     inkscape:label="Layer 1"
     inkscape:groupmode="layer"
     id="layer1"
     transform="translate(-554.12719,-338.27163)"><g
       id="g1"><path
         d="m 577.41041,356.78098 h -21.93555 c -0.74311,0 -1.34667,-0.60463 -1.34667,-1.34668 l -10e-4,-15.816 c 0,-0.7431 0.60463,-1.34667 1.34668,-1.34667 h 21.9366 c 0.74311,0 1.34668,0.60462 1.34668,1.34667 v 15.81494 c 10e-4,0.74311 -0.60357,1.34774 -1.34668,1.34774 z m -21.93555,-17.73952 c -0.31832,0 -0.57774,0.25942 -0.57774,0.57774 v 15.81494 c 0,0.31832 0.25942,0.57775 0.57774,0.57775 h 21.93661 c 0.31832,0 0.57774,-0.25942 0.57774,-0.57775 l -10e-4,-15.81599 c 0,-0.31832 -0.25942,-0.57775 -0.57774,-0.57775 z"
         id="path1"
         style="stroke-width:0.264583" /><path
         d="m 558.74591,347.50813 c -0.21291,0 -0.38447,-0.1726 -0.38447,-0.38447 v -1.53892 l -0.76999,-0.001 v 1.53892 c 0,0.21291 -0.1726,0.38447 -0.38447,0.38447 -0.2129,0 -0.38446,-0.1726 -0.38446,-0.38447 v -1.92442 c 0,-0.21291 0.1726,-0.38447 0.38446,-0.38447 h 1.53893 c 0.2129,0 0.38446,0.1726 0.38446,0.38447 v 1.92442 c 0,0.21291 -0.17259,0.3855 -0.38446,0.3855 z"
         id="path2"
         style="stroke-width:0.264583" /><path
         d="m 558.74591,355.20486 h -1.53996 c -0.2129,0 -0.38446,-0.1726 -0.38446,-0.38447 v -6.15765 c 0,-0.21291 0.1726,-0.38446 0.38446,-0.38446 0.21291,0 0.38447,0.17259 0.38447,0.38446 v 5.77215 h 0.76999 v -5.77215 c 0,-0.21291 0.1726,-0.38446 0.38447,-0.38446 0.2129,0 0.38446,0.17259 0.38446,0.38446 v 6.15765 c 0.001,0.21187 -0.17156,0.38447 -0.38343,0.38447 z"
         id="path3"
         style="stroke-width:0.264583" /><path
         d="m 559.90028,349.04694 h -3.84889 c -0.21291,0 -0.38447,-0.17259 -0.38447,-0.38446 v -1.53892 c 0,-0.21291 0.1726,-0.38447 0.38447,-0.38447 h 3.84889 c 0.21291,0 0.38447,0.1726 0.38447,0.38447 v 1.53892 c 0,0.21187 -0.1726,0.38446 -0.38447,0.38446 z m -3.46339,-0.76999 h 3.07895 v -0.76999 l -3.07895,0.001 z"
         id="path4"
         style="stroke-width:0.264583" /><path
         d="m 562.97924,355.20486 h -1.53892 c -0.21291,0 -0.38447,-0.1726 -0.38447,-0.38447 v -2.69452 c 0,-0.2129 0.1726,-0.38446 0.38447,-0.38446 0.21291,0 0.38446,0.1726 0.38446,0.38446 v 2.30892 h 0.76999 v -2.30892 c 0,-0.2129 0.1726,-0.38446 0.38447,-0.38446 0.21291,0 0.38447,0.1726 0.38447,0.38446 v 2.69452 c 0,0.21187 -0.1726,0.38447 -0.38447,0.38447 z"
         id="path5"
         style="stroke-width:0.264583" /><path
         d="m 562.97924,350.97152 c -0.21291,0 -0.38447,-0.1726 -0.38447,-0.38446 l -0.001,-5.00327 h -0.76999 v 5.00327 c 0,0.2129 -0.1726,0.38446 -0.38446,0.38446 -0.21291,0 -0.38447,-0.1726 -0.38447,-0.38446 v -5.38877 c 0,-0.21291 0.1726,-0.38447 0.38447,-0.38447 h 1.53892 c 0.21291,0 0.38446,0.1726 0.38446,0.38447 v 5.38771 c 10e-4,0.21291 -0.17156,0.3855 -0.38343,0.3855 z"
         id="path6"
         style="stroke-width:0.264583" /><path
         d="m 564.13362,352.51034 h -3.8489 c -0.2129,0 -0.38446,-0.1726 -0.38446,-0.38447 v -1.53892 c 0,-0.21291 0.1726,-0.38447 0.38446,-0.38447 h 3.8489 c 0.21291,0 0.38446,0.1726 0.38446,0.38447 v 1.53892 c 0,0.21291 -0.17259,0.38447 -0.38446,0.38447 z m -3.4634,-0.76893 h 3.07896 v -0.76999 h -3.07896 z"
         id="path7"
         style="stroke-width:0.264583" /><path
         d="m 571.44591,355.20486 h -1.53893 c -0.2129,0 -0.38446,-0.1726 -0.38446,-0.38447 v -2.69452 c 0,-0.2129 0.1726,-0.38446 0.38446,-0.38446 0.21291,0 0.38447,0.1726 0.38447,0.38446 v 2.30892 h 0.76999 v -2.30892 c 0,-0.2129 0.1726,-0.38446 0.38447,-0.38446 0.2129,0 0.38446,0.1726 0.38446,0.38446 v 2.69452 c 0,0.21187 -0.17259,0.38447 -0.38446,0.38447 z"
         id="path8"
         style="stroke-width:0.264583" /><path
         d="m 571.44591,350.97152 c -0.21291,0 -0.38447,-0.1726 -0.38447,-0.38446 l -10e-4,-5.00327 h -0.76999 v 5.00327 c 0,0.2129 -0.1726,0.38446 -0.38447,0.38446 -0.2129,0 -0.38446,-0.1726 -0.38446,-0.38446 v -5.38877 c 0,-0.21291 0.1726,-0.38447 0.38446,-0.38447 h 1.53893 c 0.2129,0 0.38446,0.1726 0.38446,0.38447 v 5.38771 c 10e-4,0.21291 -0.17156,0.3855 -0.38343,0.3855 z"
         id="path9"
         style="stroke-width:0.264583" /><path
         d="m 572.60028,352.51034 h -3.84889 c -0.21291,0 -0.38447,-0.1726 -0.38447,-0.38447 v -1.53892 c 0,-0.21291 0.1726,-0.38447 0.38447,-0.38447 h 3.84889 c 0.21291,0 0.38447,0.1726 0.38447,0.38447 v 1.53892 c 0,0.21291 -0.1726,0.38447 -0.38447,0.38447 z m -3.46339,-0.76893 h 3.07895 v -0.76999 h -3.07895 z"
         id="path10"
         style="stroke-width:0.264583" /><path
         d="m 567.21257,355.20486 h -1.53892 c -0.21291,0 -0.38446,-0.1726 -0.38446,-0.38447 l -10e-4,-5.77321 c 0,-0.21291 0.1726,-0.38446 0.38447,-0.38446 0.21291,0 0.38447,0.17259 0.38447,0.38446 v 5.38771 h 0.76999 v -5.38771 c 0,-0.21291 0.17259,-0.38446 0.38446,-0.38446 0.21291,0 0.38447,0.17259 0.38447,0.38446 v 5.77215 c 10e-4,0.21291 -0.17157,0.3855 -0.38344,0.3855 z"
         id="path11"
         style="stroke-width:0.264583" /><path
         d="m 567.21257,347.89257 c -0.2129,0 -0.38446,-0.1726 -0.38446,-0.38447 v -1.92442 h -0.76999 v 1.92442 c 0,0.21291 -0.1726,0.38447 -0.38447,0.38447 -0.21291,0 -0.38446,-0.1726 -0.38446,-0.38447 v -2.30891 c 0,-0.21291 0.17259,-0.38447 0.38446,-0.38447 h 1.53892 c 0.21291,0 0.38447,0.1726 0.38447,0.38447 v 2.30891 c 0,0.21187 -0.1726,0.38447 -0.38447,0.38447 z"
         id="path12"
         style="stroke-width:0.264583" /><path
         d="m 568.36695,349.43138 h -3.84889 c -0.21291,0 -0.38447,-0.1726 -0.38447,-0.38446 v -1.53893 c 0,-0.2129 0.1726,-0.38446 0.38447,-0.38446 h 3.84889 c 0.21291,0 0.38447,0.1726 0.38447,0.38446 v 1.53893 c 0,0.2129 -0.1726,0.38446 -0.38447,0.38446 z m -3.46339,-0.76893 h 3.07895 v -0.76999 h -3.07895 z"
         id="path13"
         style="stroke-width:0.264583" /><path
         d="m 575.29374,355.20486 c -1.06143,0 -1.92442,-0.863 -1.92442,-1.92442 0,-1.06143 0.86299,-1.92442 1.92442,-1.92442 1.06143,0 1.92442,0.86299 1.92442,1.92442 0,1.06142 -0.86299,1.92442 -1.92442,1.92442 z m 0,-3.07896 c -0.63664,0 -1.15445,0.51779 -1.15445,1.15446 0,0.63666 0.51779,1.15445 1.15445,1.15445 0.63667,0 1.15446,-0.51779 1.15446,-1.15445 0,-0.63667 -0.51779,-1.15446 -1.15446,-1.15446 z"
         id="path14"
         style="stroke-width:0.264583" /><path
         d="m 575.29374,350.58708 c -1.06143,0 -1.92442,-0.86299 -1.92442,-1.92442 0,-1.06143 0.86299,-1.92442 1.92442,-1.92442 1.06143,0 1.92442,0.86299 1.92442,1.92442 0,1.0604 -0.86299,1.92442 -1.92442,1.92442 z m 0,-3.07895 c -0.63664,0 -1.15445,0.51779 -1.15445,1.15445 0,0.63667 0.51779,1.15446 1.15445,1.15446 0.63667,0 1.15446,-0.51779 1.15446,-1.15446 0,-0.63666 -0.51779,-1.15445 -1.15446,-1.15445 z"
         id="path15"
         style="stroke-width:0.264583" /><path
         d="m 575.29374,345.96825 c -1.06143,0 -1.92442,-0.86299 -1.92442,-1.92442 0,-1.06143 0.86299,-1.92442 1.92442,-1.92442 1.06143,0 1.92442,0.86299 1.92442,1.92442 0,1.06143 -0.86299,1.92442 -1.92442,1.92442 z m 0,-3.07895 c -0.63664,0 -1.15445,0.51779 -1.15445,1.15445 0,0.63667 0.51779,1.15446 1.15445,1.15446 0.63667,0 1.15446,-0.51779 1.15446,-1.15446 0,-0.63666 -0.51779,-1.15445 -1.15446,-1.15445 z"
         id="path16"
         style="stroke-width:0.264583" /><path
         d="m 561.34332,343.65923 h -4.81012 c -0.4775,0 -0.86609,-0.38862 -0.86609,-0.86608 v -2.11667 c 0,-0.47749 0.38862,-0.86609 0.86609,-0.86609 h 4.81118 c 0.47749,0 0.86609,0.38862 0.86609,0.86609 v 2.11667 c -10e-4,0.47749 -0.38965,0.86608 -0.86712,0.86608 z m -4.81012,-3.07895 c -0.0527,0 -0.0961,0.0434 -0.0961,0.0961 v 2.11667 c 0,0.0527 0.0434,0.0961 0.0961,0.0961 h 4.81118 c 0.0527,0 0.0961,-0.0434 0.0961,-0.0961 v -2.11667 c 0,-0.0527 -0.0434,-0.0961 -0.0961,-0.0961 z"
         id="path17"
         style="stroke-width:0.264583" /><path
         d="m 560.28499,342.12042 h -2.69346 c -0.21291,0 -0.38447,-0.1726 -0.38447,-0.38447 0,-0.21291 0.1726,-0.38447 0.38447,-0.38447 h 2.69452 c 0.2129,0 0.38446,0.1726 0.38446,0.38447 0,0.21187 -0.1726,0.38447 -0.38549,0.38447 z"
         id="path18"
         style="stroke-width:0.264583" /><path
         d="m 568.65535,343.65923 h -4.81013 c -0.47749,0 -0.86609,-0.38862 -0.86609,-0.86608 v -2.11667 c 0,-0.47749 0.38862,-0.86609 0.86609,-0.86609 h 4.81119 c 0.47749,0 0.86608,0.38862 0.86608,0.86609 v 2.11667 c -10e-4,0.47749 -0.38965,0.86608 -0.86712,0.86608 z m -4.81013,-3.07895 c -0.0527,0 -0.0961,0.0434 -0.0961,0.0961 v 2.11667 c 0,0.0527 0.0434,0.0961 0.0961,0.0961 h 4.81119 c 0.0527,0 0.0961,-0.0434 0.0961,-0.0961 v -2.11667 c 0,-0.0527 -0.0434,-0.0961 -0.0961,-0.0961 z"
         id="path19"
         style="stroke-width:0.264583" /><path
         d="m 567.59701,342.12042 h -2.69451 c -0.21291,0 -0.38447,-0.1726 -0.38447,-0.38447 0,-0.21291 0.1726,-0.38447 0.38447,-0.38447 h 2.69451 c 0.21291,0 0.38447,0.1726 0.38447,0.38447 0,0.21187 -0.17157,0.38447 -0.38447,0.38447 z"
         id="path20"
         style="stroke-width:0.264583" /><path
         d="m 576.83362,340.96472 h -5.38771 c -0.21291,0 -0.38447,-0.1726 -0.38447,-0.38447 0,-0.21291 0.1726,-0.38447 0.38447,-0.38447 h 5.38771 c 0.21291,0 0.38446,0.1726 0.38446,0.38447 0,0.21291 -0.17259,0.38447 -0.38446,0.38447 z"
         id="path21"
         style="stroke-width:0.264583" /></g></g></svg>
