<?xml version="1.0" encoding="UTF-8" standalone="no"?>
<!-- Created with Inkscape (http://www.inkscape.org/) -->

<svg
   width="21.12171mm"
   height="5.5169702mm"
   viewBox="0 0 21.12171 5.5169702"
   version="1.1"
   id="svg1"
   xml:space="preserve"
   inkscape:version="1.4.2 (ebf0e940, 2025-05-08)"
   sodipodi:docname="soundboard.svg"
   xmlns:inkscape="http://www.inkscape.org/namespaces/inkscape"
   xmlns:sodipodi="http://sodipodi.sourceforge.net/DTD/sodipodi-0.dtd"
   xmlns="http://www.w3.org/2000/svg"
   xmlns:svg="http://www.w3.org/2000/svg"><sodipodi:namedview
     id="namedview1"
     pagecolor="#ffffff"
     bordercolor="#000000"
     borderopacity="0.25"
     inkscape:showpageshadow="2"
     inkscape:pageopacity="0.0"
     inkscape:pagecheckerboard="0"
     inkscape:deskcolor="#d1d1d1"
     inkscape:document-units="mm"
     inkscape:zoom="5.3765515"
     inkscape:cx="41.941382"
     inkscape:cy="-35.338637"
     inkscape:window-width="1632"
     inkscape:window-height="965"
     inkscape:window-x="0"
     inkscape:window-y="38"
     inkscape:window-maximized="0"
     inkscape:current-layer="layer1" /><defs
     id="defs1" /><g
     inkscape:label="Layer 1"
     inkscape:groupmode="layer"
     id="layer1"
     transform="translate(-554.87957,-362.07577)"><g
       id="g22"
       style="fill:#010000;fill-opacity:1"><path
         style="fill:#010000;fill-opacity:1;stroke-width:0.264583"
         d="m 566.24684,363.67302 c -0.11574,0 -0.21084,0.0941 -0.21084,0.21084 v 1.90066 c 0,0.11574 0.0941,0.21084 0.21084,0.21084 0.11574,0 0.21084,-0.0941 0.21084,-0.21084 v -1.90066 c 0,-0.11575 -0.0941,-0.21084 -0.21084,-0.21084 z"
         id="path19" /><path
         style="fill:#010000;fill-opacity:1;stroke-width:0.264583"
         d="m 570.06366,363.59032 c -0.11575,0 -0.21084,0.094 -0.21084,0.21084 v 2.06706 c 0,0.11574 0.0941,0.21084 0.21084,0.21084 0.11574,0 0.21084,-0.0941 0.21084,-0.21084 v -2.06706 c 0,-0.11574 -0.0941,-0.21084 -0.21084,-0.21084 z"
         id="path18" /><path
         style="fill:#010000;fill-opacity:1;stroke-width:0.264583"
         d="m 574.8365,363.56552 c -0.11574,0 -0.21084,0.0941 -0.21084,0.21084 v 2.11667 c 0,0.11574 0.094,0.21084 0.21084,0.21084 0.11574,0 0.21084,-0.0941 0.21084,-0.21084 v -2.11667 c 0,-0.11575 -0.094,-0.21084 -0.21084,-0.21084 z"
         id="path17" /><path
         style="fill:#010000;fill-opacity:1;stroke-width:0.264583"
         d="m 569.10971,363.56552 c -0.11574,0 -0.21084,0.0941 -0.21084,0.21084 v 2.11667 c 0,0.11574 0.0941,0.21084 0.21084,0.21084 0.11574,0 0.21084,-0.0941 0.21084,-0.21084 v -2.11667 c 0,-0.11574 -0.0941,-0.21084 -0.21084,-0.21084 z"
         id="path16" /><path
         style="fill:#010000;fill-opacity:1;stroke-width:0.264583"
         d="m 567.20079,363.56552 c -0.11574,0 -0.21084,0.0941 -0.21084,0.21084 v 2.11667 c 0,0.11574 0.094,0.21084 0.21084,0.21084 0.11574,0 0.21084,-0.0941 0.21084,-0.21084 v -2.11667 c 0,-0.11574 -0.094,-0.21084 -0.21084,-0.21084 z"
         id="path15" /><path
         style="fill:#010000;fill-opacity:1;stroke-width:0.264583"
         d="m 565.29186,363.56552 c -0.11575,0 -0.21084,0.0941 -0.21084,0.21084 v 2.11667 c 0,0.11574 0.0941,0.21084 0.21084,0.21084 0.11574,0 0.21084,-0.0941 0.21084,-0.21084 v -2.11667 c 0,-0.11574 -0.0941,-0.21084 -0.21084,-0.21084 z"
         id="path14" /><path
         style="fill:#010000;fill-opacity:1;stroke-width:0.264583"
         d="m 563.38397,363.56552 c -0.11573,0 -0.21084,0.0941 -0.21084,0.21084 v 2.11667 c 0,0.11574 0.0941,0.21084 0.21084,0.21084 0.11575,0 0.21084,-0.0941 0.21084,-0.21084 v -2.11667 c 0,-0.11574 -0.0941,-0.21084 -0.21084,-0.21084 z"
         id="path13" /><path
         style="fill:#010000;fill-opacity:1;stroke-width:0.264583"
         d="m 561.47504,363.56552 c -0.11574,0 -0.21084,0.0941 -0.21084,0.21084 v 2.11667 c 0,0.11574 0.0941,0.21084 0.21084,0.21084 0.11574,0 0.21084,-0.0941 0.21084,-0.21084 v -2.11667 c 0,-0.11574 -0.0941,-0.21084 -0.21084,-0.21084 z"
         id="path12" /><path
         style="fill:#010000;fill-opacity:1;stroke-width:0.264583"
         d="m 575.79044,363.53972 c -0.11574,0 -0.21084,0.0941 -0.21084,0.21084 v 2.16834 c 0,0.11574 0.094,0.21084 0.21084,0.21084 0.11574,0 0.21084,-0.0941 0.21084,-0.21084 v -2.16834 c 0,-0.11574 -0.094,-0.21084 -0.21084,-0.21084 z"
         id="path11" /><path
         style="fill:#010000;fill-opacity:1;stroke-width:0.264583"
         d="m 573.88152,363.19766 c -0.11574,0 -0.21084,0.094 -0.21084,0.21084 v 2.85151 c 0,0.11574 0.0941,0.21084 0.21084,0.21084 0.11574,0 0.21084,-0.0941 0.21084,-0.21084 v -2.85151 c 0,-0.11574 -0.0941,-0.21084 -0.21084,-0.21084 z"
         id="path9" /><path
         style="fill:#010000;fill-opacity:1;stroke-width:0.264583"
         d="m 568.15577,363.19766 c -0.11574,0 -0.21084,0.094 -0.21084,0.21084 v 2.85151 c 0,0.11574 0.0941,0.21084 0.21084,0.21084 0.11575,0 0.21084,-0.0941 0.21084,-0.21084 v -2.85151 c 0,-0.11574 -0.0941,-0.21084 -0.21084,-0.21084 z"
         id="path8" /><path
         style="fill:#010000;fill-opacity:1;stroke-width:0.264583"
         d="m 564.33791,363.19766 c -0.11574,0 -0.21084,0.094 -0.21084,0.21084 v 2.85151 c 0,0.11574 0.0941,0.21084 0.21084,0.21084 0.11574,0 0.21084,-0.0941 0.21084,-0.21084 v -2.85151 c 0,-0.11574 -0.0941,-0.21084 -0.21084,-0.21084 z"
         id="path7" /><path
         style="fill:#010000;fill-opacity:1;stroke-width:0.264583"
         d="m 562.42899,363.19766 c -0.11574,0 -0.21084,0.094 -0.21084,0.21084 v 2.85151 c 0,0.11574 0.094,0.21084 0.21084,0.21084 0.11574,0 0.21083,-0.0941 0.21083,-0.21084 v -2.85151 c 0,-0.11574 -0.094,-0.21084 -0.21083,-0.21084 z"
         id="path6" /><path
         style="fill:#010000;fill-opacity:1;stroke-width:0.264583"
         d="m 571.01864,363.16976 c -0.11574,0 -0.21084,0.094 -0.21084,0.21084 v 2.90835 c 0,0.11574 0.094,0.21084 0.21084,0.21084 0.11574,0 0.21084,-0.094 0.21084,-0.21084 v -2.90835 c 0,-0.11574 -0.094,-0.21084 -0.21084,-0.21084 z"
         id="path5" /><path
         style="fill:#010000;fill-opacity:1;stroke-width:0.264583"
         d="m 571.97259,362.72534 c -0.11574,0 -0.21084,0.0941 -0.21084,0.21084 v 3.79719 c 0,0.11574 0.0941,0.21084 0.21084,0.21084 0.11574,0 0.21084,-0.0941 0.21084,-0.21084 v -3.79719 c 0,-0.11574 -0.0941,-0.21084 -0.21084,-0.21084 z"
         id="path4" /><path
         style="fill:#010000;fill-opacity:1;stroke-width:0.264583"
         d="m 572.92757,362.25199 c -0.11574,0 -0.21084,0.094 -0.21084,0.21084 v 4.74286 c 0,0.11574 0.0941,0.21084 0.21084,0.21084 0.11575,0 0.21084,-0.094 0.21084,-0.21084 v -4.74286 c 0,-0.11574 -0.0941,-0.21084 -0.21084,-0.21084 z"
         id="path2" /><path
         style="fill:#010000;fill-opacity:1;stroke-width:0.264583"
         d="m 556.99572,363.50772 c -0.0364,0 -0.0729,0.01 -0.10541,0.0289 -0.0651,0.0372 -0.10542,0.10749 -0.10542,0.18294 v 2.23138 c 0,0.0754 0.0403,0.1447 0.10542,0.18293 0.0331,0.0186 0.0693,0.0279 0.10541,0.0279 0.0362,0 0.0734,-0.009 0.10542,-0.0279 l 1.93167,-1.11518 c 0.0651,-0.0372 0.10542,-0.10748 0.10542,-0.18293 0,-0.0755 -0.0403,-0.1447 -0.10542,-0.18293 v -10e-4 l -1.93167,-1.11518 c -0.0326,-0.0191 -0.069,-0.0289 -0.10542,-0.0289 z"
         id="path10" /><path
         id="path1"
         style="fill:#010000;fill-opacity:1;stroke-width:0.264583"
         d="m 557.63806,362.07577 c -1.52135,0 -2.75849,1.23707 -2.75849,2.75848 0,1.52141 1.23709,2.75849 2.75849,2.75849 1.52141,0 2.75849,-1.23708 2.75849,-2.75849 0,-1.52141 -1.23708,-2.75848 -2.75849,-2.75848 z m 5.2e-4,0.42219 c 1.28778,0 2.33577,1.04801 2.33577,2.33681 0,1.28778 -1.04799,2.33578 -2.33577,2.33578 -1.28778,0 -2.33681,-1.048 -2.33681,-2.33578 0,-1.28778 1.048,-2.33681 2.33681,-2.33681 z" /></g></g></svg>
