<?xml version="1.0" encoding="UTF-8" standalone="no"?>
<!-- Created with Inkscape (http://www.inkscape.org/) -->

<svg
   width="23.813801mm"
   height="9.4456501mm"
   viewBox="0 0 23.813801 9.4456501"
   version="1.1"
   id="svg1"
   xml:space="preserve"
   inkscape:version="1.4.2 (ebf0e940, 2025-05-08)"
   sodipodi:docname="steamdeck_green.svg"
   xmlns:inkscape="http://www.inkscape.org/namespaces/inkscape"
   xmlns:sodipodi="http://sodipodi.sourceforge.net/DTD/sodipodi-0.dtd"
   xmlns="http://www.w3.org/2000/svg"
   xmlns:svg="http://www.w3.org/2000/svg"><sodipodi:namedview
     id="namedview1"
     pagecolor="#ffffff"
     bordercolor="#000000"
     borderopacity="0.25"
     inkscape:showpageshadow="2"
     inkscape:pageopacity="0.0"
     inkscape:pagecheckerboard="0"
     inkscape:deskcolor="#d1d1d1"
     inkscape:document-units="mm"
     inkscape:zoom="6.7903199"
     inkscape:cx="64.35632"
     inkscape:cy="4.9334936"
     inkscape:window-width="1480"
     inkscape:window-height="1028"
     inkscape:window-x="0"
     inkscape:window-y="38"
     inkscape:window-maximized="0"
     inkscape:current-layer="layer1" /><defs
     id="defs1" /><g
     inkscape:label="Layer 1"
     inkscape:groupmode="layer"
     id="layer1"
     transform="translate(-559.98966,445.91619)"><path
       d="m 583.00905,-442.6089 h 0.74083 l -0.10583,3.81 c -0.0265,1.29646 -1.0848,2.30188 -2.3548,2.30188 h -0.92604 v -0.0794 c 0,-0.13229 0.0529,-0.26458 0.10584,-0.37041 l 1.82562,-2.64584 c 0.18521,-0.26458 0.29104,-0.60854 0.29104,-0.92604 v -1.69333 c 0.0265,-0.21167 0.21167,-0.39688 0.42334,-0.39688 z m -21.53707,3.01625 c -0.18521,-0.26458 -0.29104,-0.60854 -0.29104,-0.92604 v -1.69333 c 0,-0.21167 -0.18521,-0.39688 -0.39687,-0.39688 h -0.74084 l 0.10584,3.81 c 0.0265,1.29646 1.08479,2.30188 2.35479,2.30188 h 0.92604 v -0.0794 c 0,-0.13229 -0.0529,-0.26458 -0.10583,-0.37041 z m 22.33084,-4.57729 -0.0265,1.45521 h -0.76729 c -0.29105,0 -0.52917,0.23813 -0.52917,0.52917 v 1.69333 c 0,0.3175 -0.10583,0.60854 -0.26458,0.84667 l -1.82563,2.64583 c -0.0794,0.13229 -0.13229,0.29104 -0.13229,0.44979 v 0.0794 h -16.72167 v -0.0794 c 0,-0.15875 -0.0529,-0.3175 -0.13229,-0.44979 l -1.82562,-2.64583 c -0.18521,-0.26459 -0.26459,-0.55563 -0.26459,-0.84667 v -1.69333 c 0,-0.29104 -0.23812,-0.52917 -0.52916,-0.52917 h -0.7673 l -0.0264,-1.45521 c -0.0265,-0.9525 0.74083,-1.74625 1.71979,-1.74625 H 582.083 c 0.97896,0 1.74625,0.79375 1.7198,1.74625 z m -1.85209,-0.97896 c 0,0.18521 0.15875,0.34396 0.34396,0.34396 0.18521,0 0.34396,-0.15875 0.34396,-0.34396 0,-0.1852 -0.15875,-0.34395 -0.34396,-0.34395 -0.18521,0 -0.34396,0.15875 -0.34396,0.34395 z m -0.71437,0.68792 c 0,0.18521 0.15875,0.34396 0.34396,0.34396 0.1852,0 0.34395,-0.15875 0.34395,-0.34396 0,-0.18521 -0.15875,-0.34396 -0.34395,-0.34396 -0.18521,0 -0.34396,0.15875 -0.34396,0.34396 z m -1.82563,0.34396 c 0,0.34396 0.29104,0.635 0.635,0.635 0.34396,0 0.635,-0.29104 0.635,-0.635 0,-0.34396 -0.29104,-0.635 -0.635,-0.635 -0.34396,-0.0265 -0.635,0.26458 -0.635,0.635 z m -16.27187,0 c 0,0.34396 0.29104,0.635 0.635,0.635 0.34396,0 0.635,-0.29104 0.635,-0.635 0,-0.34396 -0.29104,-0.635 -0.635,-0.635 -0.37042,-0.0265 -0.635,0.26458 -0.635,0.635 z m -1.29646,0.58208 c 0.0529,0 0.0794,-0.0529 0.0794,-0.10583 v -0.47625 h 0.47625 c 0.0529,0 0.0794,-0.0265 0.10584,-0.0794 0.0529,-0.15875 0.0529,-0.34395 0,-0.52916 0,-0.0529 -0.0529,-0.0794 -0.10584,-0.0794 h -0.47625 v -0.47625 c 0,-0.0529 -0.0264,-0.0794 -0.0794,-0.10583 -0.15875,-0.0529 -0.34396,-0.0529 -0.52917,0 -0.0529,0 -0.0794,0.0529 -0.0794,0.10583 v 0.47625 h -0.47625 c -0.0529,0 -0.0794,0.0265 -0.10584,0.0794 -0.0529,0.15875 -0.0529,0.34396 0,0.52916 0.0529,0.0529 0.10584,0.0794 0.1323,0.0794 h 0.47625 v 0.47625 c 0,0.0529 0.0264,0.0794 0.0794,0.10583 0.15875,0.0265 0.34396,0.0265 0.50271,0 z m 2.56646,1.29646 c 0,-0.23812 -0.18521,-0.42333 -0.42334,-0.42333 h -1.79916 c -0.23813,0 -0.42334,0.18521 -0.42334,0.42333 v 1.79917 c 0,0.23812 0.18521,0.42333 0.42334,0.42333 h 1.79916 c 0.23813,0 0.42334,-0.18521 0.42334,-0.42333 z m 13.99646,-2.59292 c 0,-0.3175 -0.23813,-0.55562 -0.55563,-0.55562 h -11.90625 c -0.3175,0 -0.55562,0.23812 -0.55562,0.55562 v 7.19667 c 0,0.3175 0.23812,0.55563 0.55562,0.55563 h 11.90625 c 0.3175,0 0.55563,-0.23813 0.55563,-0.55563 z m 3.59833,2.59292 c 0,-0.23812 -0.18521,-0.42333 -0.42333,-0.42333 h -1.79917 c -0.23813,0 -0.42333,0.18521 -0.42333,0.42333 v 1.79917 c 0,0.23812 0.1852,0.42333 0.42333,0.42333 h 1.79917 c 0.23812,0 0.42333,-0.18521 0.42333,-0.42333 z m 0.635,-1.53458 c 0,-0.18521 -0.15875,-0.34396 -0.34396,-0.34396 -0.18521,0 -0.34396,0.15875 -0.34396,0.34396 0,0.18521 0.15875,0.34396 0.34396,0.34396 0.18521,0.0265 0.34396,-0.1323 0.34396,-0.34396 z m 0.71437,-0.68792 c 0,-0.18521 -0.15875,-0.34396 -0.34395,-0.34396 -0.18521,0 -0.34396,0.15875 -0.34396,0.34396 0,0.18521 0.15875,0.34396 0.34396,0.34396 0.1852,0 0.34395,-0.15875 0.34395,-0.34396 z"
       id="path1"
       style="fill:#000000;fill-opacity:1;stroke:#000000;stroke-width:0.01;stroke-dasharray:none;stroke-opacity:1"
       sodipodi:nodetypes="cccscsccsccccsssccscsccccsssccsccsccsssccssccssssssssssssscsssscscscsccscsccscsccscsccsssssssssssssssssssssssssssssscssssss" /><path
       style="opacity:0.991632;fill:#00ff00;fill-opacity:1;stroke:#000000;stroke-width:0.01;stroke-dasharray:none;stroke-opacity:1;paint-order:markers fill stroke"
       d="m 578.76318,-441.19337 v 2.1853 l 3.04986,-0.6851 0.47205,-0.77384 0.10947,-2.2563 0.75412,-0.6629 0.44397,-1.13728 -0.62034,-0.80886 -0.68114,-0.35882 -1.48393,0.17637 -1.49001,0.52911 -0.32841,1.56299 z"
       id="path20" /><g
       id="g22"><rect
         style="opacity:0.991632;fill:#00ff00;fill-opacity:1;stroke:#000000;stroke-width:0.01;stroke-dasharray:none;stroke-opacity:1;paint-order:markers fill stroke"
         id="rect19"
         width="14.170403"
         height="9.4456501"
         x="564.59277"
         y="-445.9162" /><path
         style="opacity:0.991632;fill:#00ff00;fill-opacity:1;stroke:#000000;stroke-width:0.01;stroke-dasharray:none;stroke-opacity:1;paint-order:markers fill stroke"
         d="m 563.24868,-439.30661 -1.37177,-0.50629 -0.38457,-0.60534 0.0498,-2.56381 -1.01128,-0.78339 -0.29911,-0.82612 0.61246,-0.84035 0.72642,-0.2279 1.19644,-0.10682 1.82565,0.32047 0.23252,1.91574 -0.23252,4.00239 z"
         id="path21" /><path
         d="m 583.00905,-442.6089 h 0.74083 l -0.10583,3.81 c -0.0265,1.29646 -1.0848,2.30188 -2.3548,2.30188 h -0.92604 v -0.0794 c 0,-0.13229 0.0529,-0.26458 0.10584,-0.37041 l 1.82562,-2.64584 c 0.18521,-0.26458 0.29104,-0.60854 0.29104,-0.92604 v -1.69333 c 0.0265,-0.21167 0.21167,-0.39688 0.42334,-0.39688 z m -21.53707,3.01625 c -0.18521,-0.26458 -0.29104,-0.60854 -0.29104,-0.92604 v -1.69333 c 0,-0.21167 -0.18521,-0.39688 -0.39687,-0.39688 h -0.74084 l 0.10584,3.81 c 0.0265,1.29646 1.08479,2.30188 2.35479,2.30188 h 0.92604 v -0.0794 c 0,-0.13229 -0.0529,-0.26458 -0.10583,-0.37041 z m 22.33084,-4.57729 -0.0265,1.45521 h -0.76729 c -0.29105,0 -0.52917,0.23813 -0.52917,0.52917 v 1.69333 c 0,0.3175 -0.10583,0.60854 -0.26458,0.84667 l -1.82563,2.64583 c -0.0794,0.13229 -0.13229,0.29104 -0.13229,0.44979 v 0.0794 h -16.72167 v -0.0794 c 0,-0.15875 -0.0529,-0.3175 -0.13229,-0.44979 l -1.82562,-2.64583 c -0.18521,-0.26459 -0.26459,-0.55563 -0.26459,-0.84667 v -1.69333 c 0,-0.29104 -0.23812,-0.52917 -0.52916,-0.52917 h -0.7673 l -0.0264,-1.45521 c -0.0265,-0.9525 0.74083,-1.74625 1.71979,-1.74625 H 582.083 c 0.97896,0 1.74625,0.79375 1.7198,1.74625 z m -1.85209,-0.97896 c 0,0.18521 0.15875,0.34396 0.34396,0.34396 0.18521,0 0.34396,-0.15875 0.34396,-0.34396 0,-0.1852 -0.15875,-0.34395 -0.34396,-0.34395 -0.18521,0 -0.34396,0.15875 -0.34396,0.34395 z m -0.71437,0.68792 c 0,0.18521 0.15875,0.34396 0.34396,0.34396 0.1852,0 0.34395,-0.15875 0.34395,-0.34396 0,-0.18521 -0.15875,-0.34396 -0.34395,-0.34396 -0.18521,0 -0.34396,0.15875 -0.34396,0.34396 z m -1.82563,0.34396 c 0,0.34396 0.29104,0.635 0.635,0.635 0.34396,0 0.635,-0.29104 0.635,-0.635 0,-0.34396 -0.29104,-0.635 -0.635,-0.635 -0.34396,-0.0265 -0.635,0.26458 -0.635,0.635 z m -16.27187,0 c 0,0.34396 0.29104,0.635 0.635,0.635 0.34396,0 0.635,-0.29104 0.635,-0.635 0,-0.34396 -0.29104,-0.635 -0.635,-0.635 -0.37042,-0.0265 -0.635,0.26458 -0.635,0.635 z m -1.29646,0.58208 c 0.0529,0 0.0794,-0.0529 0.0794,-0.10583 v -0.47625 h 0.47625 c 0.0529,0 0.0794,-0.0265 0.10584,-0.0794 0.0529,-0.15875 0.0529,-0.34395 0,-0.52916 0,-0.0529 -0.0529,-0.0794 -0.10584,-0.0794 h -0.47625 v -0.47625 c 0,-0.0529 -0.0264,-0.0794 -0.0794,-0.10583 -0.15875,-0.0529 -0.34396,-0.0529 -0.52917,0 -0.0529,0 -0.0794,0.0529 -0.0794,0.10583 v 0.47625 h -0.47625 c -0.0529,0 -0.0794,0.0265 -0.10584,0.0794 -0.0529,0.15875 -0.0529,0.34396 0,0.52916 0.0529,0.0529 0.10584,0.0794 0.1323,0.0794 h 0.47625 v 0.47625 c 0,0.0529 0.0264,0.0794 0.0794,0.10583 0.15875,0.0265 0.34396,0.0265 0.50271,0 z m 2.56646,1.29646 c 0,-0.23812 -0.18521,-0.42333 -0.42334,-0.42333 h -1.79916 c -0.23813,0 -0.42334,0.18521 -0.42334,0.42333 v 1.79917 c 0,0.23812 0.18521,0.42333 0.42334,0.42333 h 1.79916 c 0.23813,0 0.42334,-0.18521 0.42334,-0.42333 z m 13.99646,-2.59292 c 0,-0.3175 -0.23813,-0.55562 -0.55563,-0.55562 h -11.90625 c -0.3175,0 -0.55562,0.23812 -0.55562,0.55562 v 7.19667 c 0,0.3175 0.23812,0.55563 0.55562,0.55563 h 11.90625 c 0.3175,0 0.55563,-0.23813 0.55563,-0.55563 z m 3.59833,2.59292 c 0,-0.23812 -0.18521,-0.42333 -0.42333,-0.42333 h -1.79917 c -0.23813,0 -0.42333,0.18521 -0.42333,0.42333 v 1.79917 c 0,0.23812 0.1852,0.42333 0.42333,0.42333 h 1.79917 c 0.23812,0 0.42333,-0.18521 0.42333,-0.42333 z m 0.635,-1.53458 c 0,-0.18521 -0.15875,-0.34396 -0.34396,-0.34396 -0.18521,0 -0.34396,0.15875 -0.34396,0.34396 0,0.18521 0.15875,0.34396 0.34396,0.34396 0.18521,0.0265 0.34396,-0.1323 0.34396,-0.34396 z m 0.71437,-0.68792 c 0,-0.18521 -0.15875,-0.34396 -0.34395,-0.34396 -0.18521,0 -0.34396,0.15875 -0.34396,0.34396 0,0.18521 0.15875,0.34396 0.34396,0.34396 0.1852,0 0.34395,-0.15875 0.34395,-0.34396 z"
         id="path22"
         style="fill:#000000;fill-opacity:1;stroke:#000000;stroke-width:0.01;stroke-dasharray:none;stroke-opacity:1"
         sodipodi:nodetypes="cccscsccsccccsssccscsccccsssccsccsccsssccssccssssssssssssscsssscscscsccscsccscsccscsccsssssssssssssssssssssssssssssscssssss" /></g></g></svg>
