<?xml version="1.0" encoding="UTF-8" standalone="no"?>
<!-- Created with Inkscape (http://www.inkscape.org/) -->

<svg
   width="174.66623mm"
   height="37.147278mm"
   viewBox="0 0 174.66623 37.147278"
   version="1.1"
   id="svg1"
   xml:space="preserve"
   inkscape:version="1.4.2 (ebf0e940, 2025-05-08)"
   sodipodi:docname="text_logo.svg"
   xmlns:inkscape="http://www.inkscape.org/namespaces/inkscape"
   xmlns:sodipodi="http://sodipodi.sourceforge.net/DTD/sodipodi-0.dtd"
   xmlns="http://www.w3.org/2000/svg"
   xmlns:svg="http://www.w3.org/2000/svg"><sodipodi:namedview
     id="namedview1"
     pagecolor="#ffffff"
     bordercolor="#000000"
     borderopacity="0.25"
     inkscape:showpageshadow="2"
     inkscape:pageopacity="0.0"
     inkscape:pagecheckerboard="0"
     inkscape:deskcolor="#d1d1d1"
     inkscape:document-units="mm"
     inkscape:zoom="0.44307079"
     inkscape:cx="599.22704"
     inkscape:cy="84.636588"
     inkscape:window-width="1720"
     inkscape:window-height="616"
     inkscape:window-x="0"
     inkscape:window-y="38"
     inkscape:window-maximized="0"
     inkscape:current-layer="g10" /><defs
     id="defs1" /><g
     inkscape:label="Layer 1"
     inkscape:groupmode="layer"
     id="layer1"
     transform="translate(66.441628,-117.51732)"><g
       id="g10"
       transform="translate(-400.52325,-303.39011)"
       style="fill:none;stroke:#ffe81f;stroke-width:2.2;stroke-dasharray:none;stroke-opacity:1"><path
         style="font-size:48.6223px;line-height:1;font-family:'Star Jedi';-inkscape-font-specification:'Star Jedi';text-align:end;letter-spacing:8.46931px;text-anchor:end;paint-order:markers fill stroke"
         d="m 335.18162,456.85974 v -34.28252 h 22.31688 q 4.13099,0.37986 6.79003,2.18421 2.65903,1.80434 3.89358,4.84323 0.94965,4.55834 0.095,7.02745 -0.85469,2.4691 -2.99141,4.13099 -2.13672,1.6619 -6.12527,2.61155 l 2.56407,3.27631 h 10.25627 v 10.20878 h -13.53258 l -10.87354,-11.32463 v 11.32463 z m 12.39299,-25.73563 v 6.3152 h 8.64185 q 0.6885,0 1.49571,-0.49857 0.80721,-0.52231 0.85469,-2.58781 -0.11871,-1.97053 -0.9734,-2.5878 -0.83094,-0.64102 -1.40074,-0.64102 z"
         id="text6"
         aria-label="r" /><path
         style="font-size:48.6223px;line-height:1;font-family:'Star Jedi';-inkscape-font-specification:'Star Jedi';text-align:end;letter-spacing:8.46931px;text-anchor:end;paint-order:markers fill stroke"
         d="m 379.10313,456.85974 v -24.07373 h -7.12241 V 422.57722 H 401.42 q 4.131,0.37986 6.83751,2.13672 2.70652,1.75686 3.8461,4.89072 1.04462,3.79862 0.85469,5.69793 -0.18993,1.89931 -0.75972,3.5612 -0.56979,1.6619 -3.13386,3.8461 -2.56407,2.18421 -6.83751,2.82522 h -10.73109 v 11.32463 z m 12.39299,-25.73563 v 6.3152 h 8.64185 q 0.6885,0 1.4957,-0.49857 0.80721,-0.52231 0.85469,-2.58781 -0.1187,-1.97053 -0.97339,-2.5878 -0.83095,-0.64102 -1.40074,-0.64102 z"
         id="text7"
         aria-label="P" /><path
         style="font-size:48.6223px;line-height:1;font-family:'Star Jedi';-inkscape-font-specification:'Star Jedi';text-align:end;letter-spacing:8.46931px;text-anchor:end;paint-order:markers fill stroke"
         d="m 416.85245,422.57722 h 11.15844 v 34.28252 h -11.15844 z"
         id="text8"
         aria-label="i" /><path
         style="font-size:48.6223px;line-height:1;font-family:'Star Jedi';-inkscape-font-specification:'Star Jedi';text-align:end;letter-spacing:8.46931px;text-anchor:end;paint-order:markers fill stroke"
         d="m 439.36671,456.85974 v -24.07373 h -7.12241 v -10.20879 h 27.35004 q 4.10726,0 7.24112,1.0921 3.13386,1.09211 5.29432,2.94393 2.16046,1.85183 3.58494,5.00943 1.44823,3.1576 1.44823,8.21451 -0.26116,4.67705 -1.56693,7.95335 -1.30578,3.27631 -3.46624,5.17562 -2.16046,1.89931 -5.29432,2.94393 -3.11012,1.04462 -7.81091,0.94965 z m 11.44333,-25.78311 v 17.23622 h 6.52887 q 2.20795,0 3.56121,-0.92591 1.35325,-0.94965 2.20794,-2.39788 0.85469,-1.47196 1.09211,-5.27058 -0.0712,-3.46624 -0.9734,-5.10439 -0.87843,-1.6619 -2.27917,-2.58781 -1.40074,-0.94965 -3.65617,-0.94965 z"
         id="text9"
         aria-label="D" /><path
         style="font-size:48.6223px;line-height:1;font-family:'Star Jedi';-inkscape-font-specification:'Star Jedi';text-align:end;letter-spacing:8.46931px;text-anchor:end;paint-order:markers fill stroke"
         d="m 493.75916,448.59775 h 13.88869 v 8.26199 h -26.82773 v -9.63899 q 5.60296,-2.80148 9.92388,-5.57922 2.16047,-1.4957 3.39502,-2.94393 1.25829,-1.44822 1.25829,-3.37127 0,-2.4691 -1.82808,-3.60869 -1.82809,-1.16332 -4.48712,-1.16332 -4.20222,0 -7.57349,1.44822 v -8.92675 q 2.70651,-0.49857 5.36554,-0.78346 2.65904,-0.2849 5.36555,-0.2849 6.52887,0 10.96851,2.56407 4.43963,2.56406 4.43963,8.66559 0,2.77774 -1.25829,5.10439 -1.23455,2.32666 -3.20508,4.131 -1.97054,1.7806 -4.05978,3.06263 -2.08924,1.28204 -5.36554,2.96767 z"
         id="text10"
         aria-label="2" /></g></g></svg>
